<svg width="360.000000" height="320.000000"><line stroke-opacity="0.094416" x1="60.000000" y1="112.000000" x2="120.000000" y2="48.000000" stroke="palevioletred" stroke-width="1.333333"></line><line stroke-opacity="0.243283" x1="60.000000" y1="144.000000" x2="120.000000" y2="48.000000" stroke="palevioletred" stroke-width="1.333333"></line><line stroke-opacity="0.157974" x1="60.000000" y1="176.000000" x2="120.000000" y2="48.000000" stroke="palevioletred" stroke-width="1.333333"></line><line stroke-opacity="0.141082" x1="60.000000" y1="208.000000" x2="120.000000" y2="48.000000" stroke="palevioletred" stroke-width="1.333333"></line><line stroke-opacity="0.088363" x1="60.000000" y1="112.000000" x2="120.000000" y2="80.000000" stroke="lawngreen" stroke-width="1.333333"></line><line stroke-opacity="0.319296" x1="60.000000" y1="144.000000" x2="120.000000" y2="80.000000" stroke="palevioletred" stroke-width="1.333333"></line><line stroke-opacity="0.039225" x1="60.000000" y1="176.000000" x2="120.000000" y2="80.000000" stroke="lawngreen" stroke-width="1.333333"></line><line stroke-opacity="0.566035" x1="60.000000" y1="208.000000" x2="120.000000" y2="80.000000" stroke="lawngreen" stroke-width="1.333333"></line><line stroke-opacity="0.148659" x1="60.000000" y1="112.000000" x2="120.000000" y2="112.000000" stroke="lawngreen" stroke-width="1.333333"></line><line stroke-opacity="0.137370" x1="60.000000" y1="144.000000" x2="120.000000" y2="112.000000" stroke="palevioletred" stroke-width="1.333333"></line><line stroke-opacity="0.377108" x1="60.000000" y1="176.000000" x2="120.000000" y2="112.000000" stroke="palevioletred" stroke-width="1.333333"></line><line stroke-opacity="0.553447" x1="60.000000" y1="208.000000" x2="120.000000" y2="112.000000" stroke="lawngreen" stroke-width="1.333333"></line><line stroke-opacity="0.428419" x1="60.000000" y1="112.000000" x2="120.000000" y2="144.000000" stroke="palevioletred" stroke-width="1.333333"></line><line stroke-opacity="0.066374" x1="60.000000" y1="144.000000" x2="120.000000" y2="144.000000" stroke="lawngreen" stroke-width="1.333333"></line><line stroke-opacity="0.009528" x1="60.000000" y1="176.000000" x2="120.000000" y2="144.000000" stroke="lawngreen" stroke-width="1.333333"></line><line stroke-opacity="0.081807" x1="60.000000" y1="208.000000" x2="120.000000" y2="144.000000" stroke="palevioletred" stroke-width="1.333333"></line><line stroke-opacity="0.165385" x1="60.000000" y1="112.000000" x2="120.000000" y2="176.000000" stroke="lawngreen" stroke-width="1.333333"></line><line stroke-opacity="0.232766" x1="60.000000" y1="144.000000" x2="120.000000" y2="176.000000" stroke="palevioletred" stroke-width="1.333333"></line><line stroke-opacity="0.031036" x1="60.000000" y1="176.000000" x2="120.000000" y2="176.000000" stroke="palevioletred" stroke-width="1.333333"></line><line stroke-opacity="0.485473" x1="60.000000" y1="208.000000" x2="120.000000" y2="176.000000" stroke="lawngreen" stroke-width="1.333333"></line><line stroke-opacity="0.171952" x1="60.000000" y1="112.000000" x2="120.000000" y2="208.000000" stroke="lawngreen" stroke-width="1.333333"></line><line stroke-opacity="0.265930" x1="60.000000" y1="144.000000" x2="120.000000" y2="208.000000" stroke="palevioletred" stroke-width="1.333333"></line><line stroke-opacity="0.000428" x1="60.000000" y1="176.000000" x2="120.000000" y2="208.000000" stroke="lawngreen" stroke-width="1.333333"></line><line stroke-opacity="0.459187" x1="60.000000" y1="208.000000" x2="120.000000" y2="208.000000" stroke="lawngreen" stroke-width="1.333333"></line><line stroke-opacity="0.153868" x1="60.000000" y1="112.000000" x2="120.000000" y2="240.000000" stroke="palevioletred" stroke-width="1.333333"></line><line stroke-opacity="0.231969" x1="60.000000" y1="144.000000" x2="120.000000" y2="240.000000" stroke="lawngreen" stroke-width="1.333333"></line><line stroke-opacity="0.459927" x1="60.000000" y1="176.000000" x2="120.000000" y2="240.000000" stroke="palevioletred" stroke-width="1.333333"></line><line stroke-opacity="0.475631" x1="60.000000" y1="208.000000" x2="120.000000" y2="240.000000" stroke="lawngreen" stroke-width="1.333333"></line><line stroke-opacity="0.140072" x1="60.000000" y1="112.000000" x2="120.000000" y2="272.000000" stroke="lawngreen" stroke-width="1.333333"></line><line stroke-opacity="0.118027" x1="60.000000" y1="144.000000" x2="120.000000" y2="272.000000" stroke="palevioletred" stroke-width="1.333333"></line><line stroke-opacity="0.230385" x1="60.000000" y1="176.000000" x2="120.000000" y2="272.000000" stroke="palevioletred" stroke-width="1.333333"></line><line stroke-opacity="0.300021" x1="60.000000" y1="208.000000" x2="120.000000" y2="272.000000" stroke="lawngreen" stroke-width="1.333333"></line><line stroke-opacity="0.177807" x1="60.000000" y1="112.000000" x2="120.000000" y2="304.000000" stroke="lawngreen" stroke-width="1.333333"></line><line stroke-opacity="0.403733" x1="60.000000" y1="144.000000" x2="120.000000" y2="304.000000" stroke="palevioletred" stroke-width="1.333333"></line><line stroke-opacity="0.088697" x1="60.000000" y1="176.000000" x2="120.000000" y2="304.000000" stroke="palevioletred" stroke-width="1.333333"></line><line stroke-opacity="0.028015" x1="60.000000" y1="208.000000" x2="120.000000" y2="304.000000" stroke="palevioletred" stroke-width="1.333333"></line><line stroke-opacity="0.262056" x1="120.000000" y1="16.000000" x2="180.000000" y2="64.000000" stroke="palevioletred" stroke-width="1.333333"></line><line stroke-opacity="0.745727" x1="120.000000" y1="48.000000" x2="180.000000" y2="64.000000" stroke="palevioletred" stroke-width="1.333333"></line><line stroke-opacity="0.067910" x1="120.000000" y1="80.000000" x2="180.000000" y2="64.000000" stroke="lawngreen" stroke-width="1.333333"></line><line stroke-opacity="0.344403" x1="120.000000" y1="112.000000" x2="180.000000" y2="64.000000" stroke="palevioletred" stroke-width="1.333333"></line><line stroke-opacity="0.472691" x1="120.000000" y1="144.000000" x2="180.000000" y2="64.000000" stroke="lawngreen" stroke-width="1.333333"></line><line stroke-opacity="0.404706" x1="120.000000" y1="176.000000" x2="180.000000" y2="64.000000" stroke="lawngreen" stroke-width="1.333333"></line><line stroke-opacity="0.498599" x1="120.000000" y1="208.000000" x2="180.000000" y2="64.000000" stroke="lawngreen" stroke-width="1.333333"></line><line stroke-opacity="0.263951" x1="120.000000" y1="240.000000" x2="180.000000" y2="64.000000" stroke="lawngreen" stroke-width="1.333333"></line><line stroke-opacity="0.368822" x1="120.000000" y1="272.000000" x2="180.000000" y2="64.000000" stroke="palevioletred" stroke-width="1.333333"></line><line stroke-opacity="0.502290" x1="120.000000" y1="304.000000" x2="180.000000" y2="64.000000" stroke="palevioletred" stroke-width="1.333333"></line><line stroke-opacity="0.385327" x1="120.000000" y1="16.000000" x2="180.000000" y2="96.000000" stroke="palevioletred" stroke-width="1.333333"></line><line stroke-opacity="0.600421" x1="120.000000" y1="48.000000" x2="180.000000" y2="96.000000" stroke="lawngreen" stroke-width="1.333333"></line><line stroke-opacity="0.045789" x1="120.000000" y1="80.000000" x2="180.000000" y2="96.000000" stroke="lawngreen" stroke-width="1.333333"></line><line stroke-opacity="0.271415" x1="120.000000" y1="112.000000" x2="180.000000" y2="96.000000" stroke="lawngreen" stroke-width="1.333333"></line><line stroke-opacity="0.774130" x1="120.000000" y1="144.000000" x2="180.000000" y2="96.000000" stroke="palevioletred" stroke-width="1.333333"></line><line stroke-opacity="0.415790" x1="120.000000" y1="176.000000" x2="180.000000" y2="96.000000" stroke="palevioletred" stroke-width="1.333333"></line><line stroke-opacity="0.048371" x1="120.000000" y1="208.000000" x2="180.000000" y2="96.000000" stroke="palevioletred" stroke-width="1.333333"></line><line stroke-opacity="0.198172" x1="120.000000" y1="240.000000" x2="180.000000" y2="96.000000" stroke="lawngreen" stroke-width="1.333333"></line><line stroke-opacity="0.190692" x1="120.000000" y1="272.000000" x2="180.000000" y2="96.000000" stroke="lawngreen" stroke-width="1.333333"></line><line stroke-opacity="0.247735" x1="120.000000" y1="304.000000" x2="180.000000" y2="96.000000" stroke="lawngreen" stroke-width="1.333333"></line><line stroke-opacity="0.320106" x1="120.000000" y1="16.000000" x2="180.000000" y2="128.000000" stroke="palevioletred" stroke-width="1.333333"></line><line stroke-opacity="0.457733" x1="120.000000" y1="48.000000" x2="180.000000" y2="128.000000" stroke="palevioletred" stroke-width="1.333333"></line><line stroke-opacity="0.568370" x1="120.000000" y1="80.000000" x2="180.000000" y2="128.000000" stroke="palevioletred" stroke-width="1.333333"></line><line stroke-opacity="0.417112" x1="120.000000" y1="112.000000" x2="180.000000" y2="128.000000" stroke="palevioletred" stroke-width="1.333333"></line><line stroke-opacity="0.457607" x1="120.000000" y1="144.000000" x2="180.000000" y2="128.000000" stroke="lawngreen" stroke-width="1.333333"></line><line stroke-opacity="0.032112" x1="120.000000" y1="176.000000" x2="180.000000" y2="128.000000" stroke="lawngreen" stroke-width="1.333333"></line><line stroke-opacity="0.012241" x1="120.000000" y1="208.000000" x2="180.000000" y2="128.000000" stroke="lawngreen" stroke-width="1.333333"></line><line stroke-opacity="0.155793" x1="120.000000" y1="240.000000" x2="180.000000" y2="128.000000" stroke="palevioletred" stroke-width="1.333333"></line><line stroke-opacity="0.145806" x1="120.000000" y1="272.000000" x2="180.000000" y2="128.000000" stroke="palevioletred" stroke-width="1.333333"></line><line stroke-opacity="0.153269" x1="120.000000" y1="304.000000" x2="180.000000" y2="128.000000" stroke="palevioletred" stroke-width="1.333333"></line><line stroke-opacity="0.306094" x1="120.000000" y1="16.000000" x2="180.000000" y2="160.000000" stroke="palevioletred" stroke-width="1.333333"></line><line stroke-opacity="0.366580" x1="120.000000" y1="48.000000" x2="180.000000" y2="160.000000" stroke="lawngreen" stroke-width="1.333333"></line><line stroke-opacity="0.094360" x1="120.000000" y1="80.000000" x2="180.000000" y2="160.000000" stroke="lawngreen" stroke-width="1.333333"></line><line stroke-opacity="0.072004" x1="120.000000" y1="112.000000" x2="180.000000" y2="160.000000" stroke="lawngreen" stroke-width="1.333333"></line><line stroke-opacity="0.113304" x1="120.000000" y1="144.000000" x2="180.000000" y2="160.000000" stroke="palevioletred" stroke-width="1.333333"></line><line stroke-opacity="0.124351" x1="120.000000" y1="176.000000" x2="180.000000" y2="160.000000" stroke="palevioletred" stroke-width="1.333333"></line><line stroke-opacity="0.347366" x1="120.000000" y1="208.000000" x2="180.000000" y2="160.000000" stroke="palevioletred" stroke-width="1.333333"></line><line stroke-opacity="0.276008" x1="120.000000" y1="240.000000" x2="180.000000" y2="160.000000" stroke="lawngreen" stroke-width="1.333333"></line><line stroke-opacity="0.093185" x1="120.000000" y1="272.000000" x2="180.000000" y2="160.000000" stroke="palevioletred" stroke-width="1.333333"></line><line stroke-opacity="0.226171" x1="120.000000" y1="304.000000" x2="180.000000" y2="160.000000" stroke="palevioletred" stroke-width="1.333333"></line><line stroke-opacity="0.324372" x1="120.000000" y1="16.000000" x2="180.000000" y2="192.000000" stroke="palevioletred" stroke-width="1.333333"></line><line stroke-opacity="0.624046" x1="120.000000" y1="48.000000" x2="180.000000" y2="192.000000" stroke="lawngreen" stroke-width="1.333333"></line><line stroke-opacity="0.379268" x1="120.000000" y1="80.000000" x2="180.000000" y2="192.000000" stroke="lawngreen" stroke-width="1.333333"></line><line stroke-opacity="0.709154" x1="120.000000" y1="112.000000" x2="180.000000" y2="192.000000" stroke="lawngreen" stroke-width="1.333333"></line><line stroke-opacity="0.313262" x1="120.000000" y1="144.000000" x2="180.000000" y2="192.000000" stroke="palevioletred" stroke-width="1.333333"></line><line stroke-opacity="0.466484" x1="120.000000" y1="176.000000" x2="180.000000" y2="192.000000" stroke="palevioletred" stroke-width="1.333333"></line><line stroke-opacity="0.264864" x1="120.000000" y1="208.000000" x2="180.000000" y2="192.000000" stroke="palevioletred" stroke-width="1.333333"></line><line stroke-opacity="0.016205" x1="120.000000" y1="240.000000" x2="180.000000" y2="192.000000" stroke="palevioletred" stroke-width="1.333333"></line><line stroke-opacity="0.210641" x1="120.000000" y1="272.000000" x2="180.000000" y2="192.000000" stroke="palevioletred" stroke-width="1.333333"></line><line stroke-opacity="0.158490" x1="120.000000" y1="304.000000" x2="180.000000" y2="192.000000" stroke="lawngreen" stroke-width="1.333333"></line><line stroke-opacity="0.083101" x1="120.000000" y1="16.000000" x2="180.000000" y2="224.000000" stroke="palevioletred" stroke-width="1.333333"></line><line stroke-opacity="0.650085" x1="120.000000" y1="48.000000" x2="180.000000" y2="224.000000" stroke="palevioletred" stroke-width="1.333333"></line><line stroke-opacity="0.129659" x1="120.000000" y1="80.000000" x2="180.000000" y2="224.000000" stroke="palevioletred" stroke-width="1.333333"></line><line stroke-opacity="0.306542" x1="120.000000" y1="112.000000" x2="180.000000" y2="224.000000" stroke="palevioletred" stroke-width="1.333333"></line><line stroke-opacity="0.024203" x1="120.000000" y1="144.000000" x2="180.000000" y2="224.000000" stroke="lawngreen" stroke-width="1.333333"></line><line stroke-opacity="0.343001" x1="120.000000" y1="176.000000" x2="180.000000" y2="224.000000" stroke="lawngreen" stroke-width="1.333333"></line><line stroke-opacity="0.253510" x1="120.000000" y1="208.000000" x2="180.000000" y2="224.000000" stroke="lawngreen" stroke-width="1.333333"></line><line stroke-opacity="0.396479" x1="120.000000" y1="240.000000" x2="180.000000" y2="224.000000" stroke="lawngreen" stroke-width="1.333333"></line><line stroke-opacity="0.205332" x1="120.000000" y1="272.000000" x2="180.000000" y2="224.000000" stroke="palevioletred" stroke-width="1.333333"></line><line stroke-opacity="0.657745" x1="120.000000" y1="304.000000" x2="180.000000" y2="224.000000" stroke="palevioletred" stroke-width="1.333333"></line><line stroke-opacity="0.374278" x1="120.000000" y1="16.000000" x2="180.000000" y2="256.000000" stroke="lawngreen" stroke-width="1.333333"></line><line stroke-opacity="0.669152" x1="120.000000" y1="48.000000" x2="180.000000" y2="256.000000" stroke="lawngreen" stroke-width="1.333333"></line><line stroke-opacity="0.552146" x1="120.000000" y1="80.000000" x2="180.000000" y2="256.000000" stroke="lawngreen" stroke-width="1.333333"></line><line stroke-opacity="0.444582" x1="120.000000" y1="112.000000" x2="180.000000" y2="256.000000" stroke="lawngreen" stroke-width="1.333333"></line><line stroke-opacity="0.511191" x1="120.000000" y1="144.000000" x2="180.000000" y2="256.000000" stroke="palevioletred" stroke-width="1.333333"></line><line stroke-opacity="0.187576" x1="120.000000" y1="176.000000" x2="180.000000" y2="256.000000" stroke="palevioletred" stroke-width="1.333333"></line><line stroke-opacity="0.242699" x1="120.000000" y1="208.000000" x2="180.000000" y2="256.000000" stroke="palevioletred" stroke-width="1.333333"></line><line stroke-opacity="0.516616" x1="120.000000" y1="240.000000" x2="180.000000" y2="256.000000" stroke="lawngreen" stroke-width="1.333333"></line><line stroke-opacity="0.163756" x1="120.000000" y1="272.000000" x2="180.000000" y2="256.000000" stroke="lawngreen" stroke-width="1.333333"></line><line stroke-opacity="0.126201" x1="120.000000" y1="304.000000" x2="180.000000" y2="256.000000" stroke="lawngreen" stroke-width="1.333333"></line><line stroke-opacity="0.036790" x1="120.000000" y1="16.000000" x2="180.000000" y2="288.000000" stroke="palevioletred" stroke-width="1.333333"></line><line stroke-opacity="0.169702" x1="120.000000" y1="48.000000" x2="180.000000" y2="288.000000" stroke="lawngreen" stroke-width="1.333333"></line><line stroke-opacity="0.238500" x1="120.000000" y1="80.000000" x2="180.000000" y2="288.000000" stroke="lawngreen" stroke-width="1.333333"></line><line stroke-opacity="0.150973" x1="120.000000" y1="112.000000" x2="180.000000" y2="288.000000" stroke="lawngreen" stroke-width="1.333333"></line><line stroke-opacity="0.074012" x1="120.000000" y1="144.000000" x2="180.000000" y2="288.000000" stroke="palevioletred" stroke-width="1.333333"></line><line stroke-opacity="0.299519" x1="120.000000" y1="176.000000" x2="180.000000" y2="288.000000" stroke="lawngreen" stroke-width="1.333333"></line><line stroke-opacity="0.311014" x1="120.000000" y1="208.000000" x2="180.000000" y2="288.000000" stroke="lawngreen" stroke-width="1.333333"></line><line stroke-opacity="0.266434" x1="120.000000" y1="240.000000" x2="180.000000" y2="288.000000" stroke="lawngreen" stroke-width="1.333333"></line><line stroke-opacity="0.337106" x1="120.000000" y1="272.000000" x2="180.000000" y2="288.000000" stroke="lawngreen" stroke-width="1.333333"></line><line stroke-opacity="0.296567" x1="120.000000" y1="304.000000" x2="180.000000" y2="288.000000" stroke="lawngreen" stroke-width="1.333333"></line><line stroke-opacity="0.179372" x1="180.000000" y1="32.000000" x2="240.000000" y2="80.000000" stroke="lawngreen" stroke-width="1.333333"></line><line stroke-opacity="0.311535" x1="180.000000" y1="64.000000" x2="240.000000" y2="80.000000" stroke="lawngreen" stroke-width="1.333333"></line><line stroke-opacity="0.355254" x1="180.000000" y1="96.000000" x2="240.000000" y2="80.000000" stroke="palevioletred" stroke-width="1.333333"></line><line stroke-opacity="0.137047" x1="180.000000" y1="128.000000" x2="240.000000" y2="80.000000" stroke="palevioletred" stroke-width="1.333333"></line><line stroke-opacity="0.153871" x1="180.000000" y1="160.000000" x2="240.000000" y2="80.000000" stroke="lawngreen" stroke-width="1.333333"></line><line stroke-opacity="0.408760" x1="180.000000" y1="192.000000" x2="240.000000" y2="80.000000" stroke="palevioletred" stroke-width="1.333333"></line><line stroke-opacity="0.122469" x1="180.000000" y1="224.000000" x2="240.000000" y2="80.000000" stroke="lawngreen" stroke-width="1.333333"></line><line stroke-opacity="0.528260" x1="180.000000" y1="256.000000" x2="240.000000" y2="80.000000" stroke="palevioletred" stroke-width="1.333333"></line><line stroke-opacity="0.183466" x1="180.000000" y1="288.000000" x2="240.000000" y2="80.000000" stroke="palevioletred" stroke-width="1.333333"></line><line stroke-opacity="0.013313" x1="180.000000" y1="32.000000" x2="240.000000" y2="112.000000" stroke="palevioletred" stroke-width="1.333333"></line><line stroke-opacity="0.244249" x1="180.000000" y1="64.000000" x2="240.000000" y2="112.000000" stroke="palevioletred" stroke-width="1.333333"></line><line stroke-opacity="0.234408" x1="180.000000" y1="96.000000" x2="240.000000" y2="112.000000" stroke="palevioletred" stroke-width="1.333333"></line><line stroke-opacity="0.109031" x1="180.000000" y1="128.000000" x2="240.000000" y2="112.000000" stroke="palevioletred" stroke-width="1.333333"></line><line stroke-opacity="0.483740" x1="180.000000" y1="160.000000" x2="240.000000" y2="112.000000" stroke="lawngreen" stroke-width="1.333333"></line><line stroke-opacity="0.132727" x1="180.000000" y1="192.000000" x2="240.000000" y2="112.000000" stroke="palevioletred" stroke-width="1.333333"></line><line stroke-opacity="0.145939" x1="180.000000" y1="224.000000" x2="240.000000" y2="112.000000" stroke="palevioletred" stroke-width="1.333333"></line><line stroke-opacity="0.218605" x1="180.000000" y1="256.000000" x2="240.000000" y2="112.000000" stroke="lawngreen" stroke-width="1.333333"></line><line stroke-opacity="0.027656" x1="180.000000" y1="288.000000" x2="240.000000" y2="112.000000" stroke="lawngreen" stroke-width="1.333333"></line><line stroke-opacity="0.005115" x1="180.000000" y1="32.000000" x2="240.000000" y2="144.000000" stroke="lawngreen" stroke-width="1.333333"></line><line stroke-opacity="0.295151" x1="180.000000" y1="64.000000" x2="240.000000" y2="144.000000" stroke="lawngreen" stroke-width="1.333333"></line><line stroke-opacity="0.240850" x1="180.000000" y1="96.000000" x2="240.000000" y2="144.000000" stroke="palevioletred" stroke-width="1.333333"></line><line stroke-opacity="0.249355" x1="180.000000" y1="128.000000" x2="240.000000" y2="144.000000" stroke="lawngreen" stroke-width="1.333333"></line><line stroke-opacity="0.034681" x1="180.000000" y1="160.000000" x2="240.000000" y2="144.000000" stroke="palevioletred" stroke-width="1.333333"></line><line stroke-opacity="0.085185" x1="180.000000" y1="192.000000" x2="240.000000" y2="144.000000" stroke="lawngreen" stroke-width="1.333333"></line><line stroke-opacity="0.409405" x1="180.000000" y1="224.000000" x2="240.000000" y2="144.000000" stroke="lawngreen" stroke-width="1.333333"></line><line stroke-opacity="0.404188" x1="180.000000" y1="256.000000" x2="240.000000" y2="144.000000" stroke="palevioletred" stroke-width="1.333333"></line><line stroke-opacity="0.267349" x1="180.000000" y1="288.000000" x2="240.000000" y2="144.000000" stroke="palevioletred" stroke-width="1.333333"></line><line stroke-opacity="0.024281" x1="180.000000" y1="32.000000" x2="240.000000" y2="176.000000" stroke="lawngreen" stroke-width="1.333333"></line><line stroke-opacity="0.569272" x1="180.000000" y1="64.000000" x2="240.000000" y2="176.000000" stroke="lawngreen" stroke-width="1.333333"></line><line stroke-opacity="0.494725" x1="180.000000" y1="96.000000" x2="240.000000" y2="176.000000" stroke="palevioletred" stroke-width="1.333333"></line><line stroke-opacity="0.020233" x1="180.000000" y1="128.000000" x2="240.000000" y2="176.000000" stroke="palevioletred" stroke-width="1.333333"></line><line stroke-opacity="0.346601" x1="180.000000" y1="160.000000" x2="240.000000" y2="176.000000" stroke="lawngreen" stroke-width="1.333333"></line><line stroke-opacity="0.201984" x1="180.000000" y1="192.000000" x2="240.000000" y2="176.000000" stroke="palevioletred" stroke-width="1.333333"></line><line stroke-opacity="0.003305" x1="180.000000" y1="224.000000" x2="240.000000" y2="176.000000" stroke="palevioletred" stroke-width="1.333333"></line><line stroke-opacity="0.114250" x1="180.000000" y1="256.000000" x2="240.000000" y2="176.000000" stroke="palevioletred" stroke-width="1.333333"></line><line stroke-opacity="0.200468" x1="180.000000" y1="288.000000" x2="240.000000" y2="176.000000" stroke="palevioletred" stroke-width="1.333333"></line><line stroke-opacity="0.056589" x1="180.000000" y1="32.000000" x2="240.000000" y2="208.000000" stroke="lawngreen" stroke-width="1.333333"></line><line stroke-opacity="0.426387" x1="180.000000" y1="64.000000" x2="240.000000" y2="208.000000" stroke="lawngreen" stroke-width="1.333333"></line><line stroke-opacity="0.398793" x1="180.000000" y1="96.000000" x2="240.000000" y2="208.000000" stroke="palevioletred" stroke-width="1.333333"></line><line stroke-opacity="0.205816" x1="180.000000" y1="128.000000" x2="240.000000" y2="208.000000" stroke="lawngreen" stroke-width="1.333333"></line><line stroke-opacity="0.186093" x1="180.000000" y1="160.000000" x2="240.000000" y2="208.000000" stroke="lawngreen" stroke-width="1.333333"></line><line stroke-opacity="0.404827" x1="180.000000" y1="192.000000" x2="240.000000" y2="208.000000" stroke="palevioletred" stroke-width="1.333333"></line><line stroke-opacity="0.037018" x1="180.000000" y1="224.000000" x2="240.000000" y2="208.000000" stroke="palevioletred" stroke-width="1.333333"></line><line stroke-opacity="0.206748" x1="180.000000" y1="256.000000" x2="240.000000" y2="208.000000" stroke="palevioletred" stroke-width="1.333333"></line><line stroke-opacity="0.019377" x1="180.000000" y1="288.000000" x2="240.000000" y2="208.000000" stroke="palevioletred" stroke-width="1.333333"></line><line stroke-opacity="0.292547" x1="180.000000" y1="32.000000" x2="240.000000" y2="240.000000" stroke="lawngreen" stroke-width="1.333333"></line><line stroke-opacity="0.657083" x1="180.000000" y1="64.000000" x2="240.000000" y2="240.000000" stroke="lawngreen" stroke-width="1.333333"></line><line stroke-opacity="0.537537" x1="180.000000" y1="96.000000" x2="240.000000" y2="240.000000" stroke="palevioletred" stroke-width="1.333333"></line><line stroke-opacity="0.203888" x1="180.000000" y1="128.000000" x2="240.000000" y2="240.000000" stroke="lawngreen" stroke-width="1.333333"></line><line stroke-opacity="0.278286" x1="180.000000" y1="160.000000" x2="240.000000" y2="240.000000" stroke="lawngreen" stroke-width="1.333333"></line><line stroke-opacity="0.126003" x1="180.000000" y1="192.000000" x2="240.000000" y2="240.000000" stroke="palevioletred" stroke-width="1.333333"></line><line stroke-opacity="0.234345" x1="180.000000" y1="224.000000" x2="240.000000" y2="240.000000" stroke="lawngreen" stroke-width="1.333333"></line><line stroke-opacity="0.165941" x1="180.000000" y1="256.000000" x2="240.000000" y2="240.000000" stroke="palevioletred" stroke-width="1.333333"></line><line stroke-opacity="0.283826" x1="180.000000" y1="288.000000" x2="240.000000" y2="240.000000" stroke="palevioletred" stroke-width="1.333333"></line><line stroke-opacity="0.117079" x1="180.000000" y1="32.000000" x2="240.000000" y2="272.000000" stroke="palevioletred" stroke-width="1.333333"></line><line stroke-opacity="0.607524" x1="180.000000" y1="64.000000" x2="240.000000" y2="272.000000" stroke="palevioletred" stroke-width="1.333333"></line><line stroke-opacity="0.169978" x1="180.000000" y1="96.000000" x2="240.000000" y2="272.000000" stroke="lawngreen" stroke-width="1.333333"></line><line stroke-opacity="0.262518" x1="180.000000" y1="128.000000" x2="240.000000" y2="272.000000" stroke="palevioletred" stroke-width="1.333333"></line><line stroke-opacity="0.093634" x1="180.000000" y1="160.000000" x2="240.000000" y2="272.000000" stroke="palevioletred" stroke-width="1.333333"></line><line stroke-opacity="0.269144" x1="180.000000" y1="192.000000" x2="240.000000" y2="272.000000" stroke="lawngreen" stroke-width="1.333333"></line><line stroke-opacity="0.178884" x1="180.000000" y1="224.000000" x2="240.000000" y2="272.000000" stroke="palevioletred" stroke-width="1.333333"></line><line stroke-opacity="0.013547" x1="180.000000" y1="256.000000" x2="240.000000" y2="272.000000" stroke="lawngreen" stroke-width="1.333333"></line><line stroke-opacity="0.119155" x1="180.000000" y1="288.000000" x2="240.000000" y2="272.000000" stroke="lawngreen" stroke-width="1.333333"></line><line stroke-opacity="0.019117" x1="240.000000" y1="48.000000" x2="300.000000" y2="80.000000" stroke="lawngreen" stroke-width="1.333333"></line><line stroke-opacity="0.226821" x1="240.000000" y1="80.000000" x2="300.000000" y2="80.000000" stroke="lawngreen" stroke-width="1.333333"></line><line stroke-opacity="0.109143" x1="240.000000" y1="112.000000" x2="300.000000" y2="80.000000" stroke="palevioletred" stroke-width="1.333333"></line><line stroke-opacity="0.086646" x1="240.000000" y1="144.000000" x2="300.000000" y2="80.000000" stroke="lawngreen" stroke-width="1.333333"></line><line stroke-opacity="0.168729" x1="240.000000" y1="176.000000" x2="300.000000" y2="80.000000" stroke="palevioletred" stroke-width="1.333333"></line><line stroke-opacity="0.009883" x1="240.000000" y1="208.000000" x2="300.000000" y2="80.000000" stroke="palevioletred" stroke-width="1.333333"></line><line stroke-opacity="0.037851" x1="240.000000" y1="240.000000" x2="300.000000" y2="80.000000" stroke="palevioletred" stroke-width="1.333333"></line><line stroke-opacity="0.052249" x1="240.000000" y1="272.000000" x2="300.000000" y2="80.000000" stroke="lawngreen" stroke-width="1.333333"></line><line stroke-opacity="0.296066" x1="240.000000" y1="48.000000" x2="300.000000" y2="112.000000" stroke="lawngreen" stroke-width="1.333333"></line><line stroke-opacity="0.006585" x1="240.000000" y1="80.000000" x2="300.000000" y2="112.000000" stroke="palevioletred" stroke-width="1.333333"></line><line stroke-opacity="0.024181" x1="240.000000" y1="112.000000" x2="300.000000" y2="112.000000" stroke="palevioletred" stroke-width="1.333333"></line><line stroke-opacity="0.018000" x1="240.000000" y1="144.000000" x2="300.000000" y2="112.000000" stroke="palevioletred" stroke-width="1.333333"></line><line stroke-opacity="0.073915" x1="240.000000" y1="176.000000" x2="300.000000" y2="112.000000" stroke="palevioletred" stroke-width="1.333333"></line><line stroke-opacity="0.093084" x1="240.000000" y1="208.000000" x2="300.000000" y2="112.000000" stroke="lawngreen" stroke-width="1.333333"></line><line stroke-opacity="0.012940" x1="240.000000" y1="240.000000" x2="300.000000" y2="112.000000" stroke="palevioletred" stroke-width="1.333333"></line><line stroke-opacity="0.020180" x1="240.000000" y1="272.000000" x2="300.000000" y2="112.000000" stroke="lawngreen" stroke-width="1.333333"></line><line stroke-opacity="0.508380" x1="240.000000" y1="48.000000" x2="300.000000" y2="144.000000" stroke="lawngreen" stroke-width="1.333333"></line><line stroke-opacity="0.569344" x1="240.000000" y1="80.000000" x2="300.000000" y2="144.000000" stroke="lawngreen" stroke-width="1.333333"></line><line stroke-opacity="0.044470" x1="240.000000" y1="112.000000" x2="300.000000" y2="144.000000" stroke="lawngreen" stroke-width="1.333333"></line><line stroke-opacity="0.696112" x1="240.000000" y1="144.000000" x2="300.000000" y2="144.000000" stroke="lawngreen" stroke-width="1.333333"></line><line stroke-opacity="1.000000" x1="240.000000" y1="176.000000" x2="300.000000" y2="144.000000" stroke="palevioletred" stroke-width="1.333333"></line><line stroke-opacity="0.305268" x1="240.000000" y1="208.000000" x2="300.000000" y2="144.000000" stroke="lawngreen" stroke-width="1.333333"></line><line stroke-opacity="0.126879" x1="240.000000" y1="240.000000" x2="300.000000" y2="144.000000" stroke="lawngreen" stroke-width="1.333333"></line><line stroke-opacity="0.442660" x1="240.000000" y1="272.000000" x2="300.000000" y2="144.000000" stroke="palevioletred" stroke-width="1.333333"></line><line stroke-opacity="0.127194" x1="240.000000" y1="48.000000" x2="300.000000" y2="176.000000" stroke="lawngreen" stroke-width="1.333333"></line><line stroke-opacity="0.494895" x1="240.000000" y1="80.000000" x2="300.000000" y2="176.000000" stroke="palevioletred" stroke-width="1.333333"></line><line stroke-opacity="0.181524" x1="240.000000" y1="112.000000" x2="300.000000" y2="176.000000" stroke="lawngreen" stroke-width="1.333333"></line><line stroke-opacity="0.481576" x1="240.000000" y1="144.000000" x2="300.000000" y2="176.000000" stroke="palevioletred" stroke-width="1.333333"></line><line stroke-opacity="0.476485" x1="240.000000" y1="176.000000" x2="300.000000" y2="176.000000" stroke="lawngreen" stroke-width="1.333333"></line><line stroke-opacity="0.823079" x1="240.000000" y1="208.000000" x2="300.000000" y2="176.000000" stroke="lawngreen" stroke-width="1.333333"></line><line stroke-opacity="0.680038" x1="240.000000" y1="240.000000" x2="300.000000" y2="176.000000" stroke="palevioletred" stroke-width="1.333333"></line><line stroke-opacity="0.298693" x1="240.000000" y1="272.000000" x2="300.000000" y2="176.000000" stroke="palevioletred" stroke-width="1.333333"></line><line stroke-opacity="0.082691" x1="240.000000" y1="48.000000" x2="300.000000" y2="208.000000" stroke="lawngreen" stroke-width="1.333333"></line><line stroke-opacity="0.155386" x1="240.000000" y1="80.000000" x2="300.000000" y2="208.000000" stroke="lawngreen" stroke-width="1.333333"></line><line stroke-opacity="0.048685" x1="240.000000" y1="112.000000" x2="300.000000" y2="208.000000" stroke="lawngreen" stroke-width="1.333333"></line><line stroke-opacity="0.051679" x1="240.000000" y1="144.000000" x2="300.000000" y2="208.000000" stroke="lawngreen" stroke-width="1.333333"></line><line stroke-opacity="0.267847" x1="240.000000" y1="176.000000" x2="300.000000" y2="208.000000" stroke="palevioletred" stroke-width="1.333333"></line><line stroke-opacity="0.399793" x1="240.000000" y1="208.000000" x2="300.000000" y2="208.000000" stroke="lawngreen" stroke-width="1.333333"></line><line stroke-opacity="0.109034" x1="240.000000" y1="240.000000" x2="300.000000" y2="208.000000" stroke="lawngreen" stroke-width="1.333333"></line><line stroke-opacity="0.157198" x1="240.000000" y1="272.000000" x2="300.000000" y2="208.000000" stroke="palevioletred" stroke-width="1.333333"></line><line stroke-opacity="0.090340" x1="240.000000" y1="48.000000" x2="300.000000" y2="240.000000" stroke="lawngreen" stroke-width="1.333333"></line><line stroke-opacity="0.014478" x1="240.000000" y1="80.000000" x2="300.000000" y2="240.000000" stroke="lawngreen" stroke-width="1.333333"></line><line stroke-opacity="0.246546" x1="240.000000" y1="112.000000" x2="300.000000" y2="240.000000" stroke="palevioletred" stroke-width="1.333333"></line><line stroke-opacity="0.160636" x1="240.000000" y1="144.000000" x2="300.000000" y2="240.000000" stroke="lawngreen" stroke-width="1.333333"></line><line stroke-opacity="0.106735" x1="240.000000" y1="176.000000" x2="300.000000" y2="240.000000" stroke="palevioletred" stroke-width="1.333333"></line><line stroke-opacity="0.064557" x1="240.000000" y1="208.000000" x2="300.000000" y2="240.000000" stroke="lawngreen" stroke-width="1.333333"></line><line stroke-opacity="0.388896" x1="240.000000" y1="240.000000" x2="300.000000" y2="240.000000" stroke="lawngreen" stroke-width="1.333333"></line><line stroke-opacity="0.080501" x1="240.000000" y1="272.000000" x2="300.000000" y2="240.000000" stroke="lawngreen" stroke-width="1.333333"></line><circle cx="60.000000" cy="112.000000" r="12.000000" stroke="black" stroke-width="2.666667" fill="white"></circle><circle cx="60.000000" cy="144.000000" r="12.000000" stroke="brown" stroke-width="2.666667" fill="white"></circle><circle cx="60.000000" cy="176.000000" r="12.000000" stroke="brown" stroke-width="2.666667" fill="white"></circle><circle cx="60.000000" cy="208.000000" r="12.000000" stroke="brown" stroke-width="2.666667" fill="white"></circle><circle cx="120.000000" cy="16.000000" r="12.000000" stroke="black" stroke-width="2.666667" fill="white"></circle><circle cx="120.000000" cy="48.000000" r="12.000000" stroke="blue" stroke-width="2.666667" fill="white"></circle><circle cx="120.000000" cy="80.000000" r="12.000000" stroke="blue" stroke-width="2.666667" fill="white"></circle><circle cx="120.000000" cy="112.000000" r="12.000000" stroke="blue" stroke-width="2.666667" fill="white"></circle><circle cx="120.000000" cy="144.000000" r="12.000000" stroke="blue" stroke-width="2.666667" fill="white"></circle><circle cx="120.000000" cy="176.000000" r="12.000000" stroke="blue" stroke-width="2.666667" fill="white"></circle><circle cx="120.000000" cy="208.000000" r="12.000000" stroke="blue" stroke-width="2.666667" fill="white"></circle><circle cx="120.000000" cy="240.000000" r="12.000000" stroke="blue" stroke-width="2.666667" fill="white"></circle><circle cx="120.000000" cy="272.000000" r="12.000000" stroke="blue" stroke-width="2.666667" fill="white"></circle><circle cx="120.000000" cy="304.000000" r="12.000000" stroke="blue" stroke-width="2.666667" fill="white"></circle><circle cx="180.000000" cy="32.000000" r="12.000000" stroke="black" stroke-width="2.666667" fill="white"></circle><circle cx="180.000000" cy="64.000000" r="12.000000" stroke="yellow" stroke-width="2.666667" fill="white"></circle><circle cx="180.000000" cy="96.000000" r="12.000000" stroke="yellow" stroke-width="2.666667" fill="white"></circle><circle cx="180.000000" cy="128.000000" r="12.000000" stroke="yellow" stroke-width="2.666667" fill="white"></circle><circle cx="180.000000" cy="160.000000" r="12.000000" stroke="yellow" stroke-width="2.666667" fill="white"></circle><circle cx="180.000000" cy="192.000000" r="12.000000" stroke="yellow" stroke-width="2.666667" fill="white"></circle><circle cx="180.000000" cy="224.000000" r="12.000000" stroke="yellow" stroke-width="2.666667" fill="white"></circle><circle cx="180.000000" cy="256.000000" r="12.000000" stroke="yellow" stroke-width="2.666667" fill="white"></circle><circle cx="180.000000" cy="288.000000" r="12.000000" stroke="yellow" stroke-width="2.666667" fill="white"></circle><circle cx="240.000000" cy="48.000000" r="12.000000" stroke="black" stroke-width="2.666667" fill="white"></circle><circle cx="240.000000" cy="80.000000" r="12.000000" stroke="blue" stroke-width="2.666667" fill="white"></circle><circle cx="240.000000" cy="112.000000" r="12.000000" stroke="blue" stroke-width="2.666667" fill="white"></circle><circle cx="240.000000" cy="144.000000" r="12.000000" stroke="blue" stroke-width="2.666667" fill="white"></circle><circle cx="240.000000" cy="176.000000" r="12.000000" stroke="blue" stroke-width="2.666667" fill="white"></circle><circle cx="240.000000" cy="208.000000" r="12.000000" stroke="blue" stroke-width="2.666667" fill="white"></circle><circle cx="240.000000" cy="240.000000" r="12.000000" stroke="blue" stroke-width="2.666667" fill="white"></circle><circle cx="240.000000" cy="272.000000" r="12.000000" stroke="blue" stroke-width="2.666667" fill="white"></circle><circle cx="300.000000" cy="80.000000" r="12.000000" stroke="orange" stroke-width="2.666667" fill="white"></circle><circle cx="300.000000" cy="112.000000" r="12.000000" stroke="orange" stroke-width="2.666667" fill="white"></circle><circle cx="300.000000" cy="144.000000" r="12.000000" stroke="orange" stroke-width="2.666667" fill="white"></circle><circle cx="300.000000" cy="176.000000" r="12.000000" stroke="orange" stroke-width="2.666667" fill="white"></circle><circle cx="300.000000" cy="208.000000" r="12.000000" stroke="orange" stroke-width="2.666667" fill="white"></circle><circle cx="300.000000" cy="240.000000" r="12.000000" stroke="orange" stroke-width="2.666667" fill="white"></circle></svg>